<?xml version="1.0" encoding="utf-8"?>
<!-- Generator: Adobe Illustrator 13.0.0, SVG Export Plug-In . SVG Version: 6.00 Build 14576)  -->
<!DOCTYPE svg PUBLIC "-//W3C//DTD SVG 1.1//EN" "http://www.w3.org/Graphics/SVG/1.1/DTD/svg11.dtd">
<svg version="1.1" xmlns="http://www.w3.org/2000/svg" xmlns:xlink="http://www.w3.org/1999/xlink" x="0px" y="0px"
	 width="127.032px" height="136.592px" viewBox="0 0 127.032 136.592" enable-background="new 0 0 127.032 136.592"
	 xml:space="preserve">
<g id="Layer_5">
</g>
<g id="Layer_3">
</g>
<g id="Layer_4">
	<g>
		<g id="XMLID_10_">
			<g>
				<path fill="#DFB800" d="M126.782,125.967c-36.107,0-72.252,0-108.36,0C36.931,84.185,54.566,41.474,73.69,0.25
					c0.726,0,1.47,0,2.158,0C92.442,42.553,110.97,82.902,126.782,125.967z"/>
			</g>
			<g>
				<path fill="none" stroke="#000000" stroke-width="0.25" d="M73.69,0.25c0.726,0,1.47,0,2.158,0
					c16.594,42.303,35.122,82.652,50.934,125.717c-36.107,0-72.252,0-108.36,0C36.931,84.185,54.566,41.474,73.69,0.25z"/>
			</g>
		</g>
		<polygon fill="#DFB800" stroke="#000000" stroke-width="0.25" points="31.295,115.079 107.158,115.079 69.221,25.124 		"/>
	</g>
	<polygon fill="#DF3000" stroke="#000000" stroke-width="0.25" points="115.429,86.55 86.625,136.467 28.964,136.467 0.145,86.55 
		28.964,36.631 86.625,36.631 	"/>
	<g>
		<g id="XMLID_9_">
			<g>
				<path d="M116.276,126.255c-34.832,0-69.628,0-104.46,0C29.644,85.899,46.647,44.752,65.086,5.024c0.682,0,1.399,0,2.081,0
					C83.184,45.775,101.031,84.714,116.276,126.255z"/>
			</g>
			<g>
			</g>
		</g>
		<polygon fill="#DF3000" points="24.208,115.734 97.342,115.734 60.783,28.983 		"/>
	</g>
</g>
</svg>
